<?xml version="1.0" encoding="iso-8859-1"?>
<!-- Generator: Adobe Illustrator 16.0.0, SVG Export Plug-In . SVG Version: 6.00 Build 0)  -->
<!DOCTYPE svg PUBLIC "-//W3C//DTD SVG 1.1//EN" "http://www.w3.org/Graphics/SVG/1.1/DTD/svg11.dtd">
<svg version="1.1" xmlns="http://www.w3.org/2000/svg" xmlns:xlink="http://www.w3.org/1999/xlink" x="0px" y="0px"
	 width="24.332px" height="24.311px" viewBox="0 0 24.332 24.311" style="enable-background:new 0 0 24.332 24.311;"
	 xml:space="preserve">
<g id="c40_rss">
	<path style="fill:#000000;" d="M3.607,17.099C1.618,17.099,0,18.716,0,20.707c0,1.984,1.618,3.604,3.607,3.604
		s3.607-1.619,3.607-3.604C7.214,18.716,5.596,17.099,3.607,17.099z"/>
	<path style="fill:#000000;" d="M0.375,7.941C0.169,7.941,0,8.11,0,8.318v4.578c0,0.206,0.169,0.374,0.375,0.374
		c5.879,0,10.665,4.784,10.665,10.665c0,0.205,0.166,0.375,0.375,0.375h4.581h0.016c0.209,0,0.377-0.17,0.377-0.375l-0.018-0.117
		C16.305,15.054,9.152,7.941,0.375,7.941z"/>
	<path style="fill:#000000;" d="M24.311,23.818C24.246,10.671,13.531,0,0.375,0C0.169,0,0,0.169,0,0.377v4.711
		c0,0.207,0.169,0.375,0.375,0.375c10.186,0,18.472,8.287,18.472,18.473c0,0.205,0.168,0.375,0.373,0.375h4.713h0.02
		c0.205,0,0.379-0.17,0.379-0.375L24.311,23.818z"/>
</g>
<g id="Capa_1">
</g>
</svg>
