<?xml version="1.0" encoding="utf-8"?>
<!-- Generated by IcoMoon.io -->
<!DOCTYPE svg PUBLIC "-//W3C//DTD SVG 1.1//EN" "http://www.w3.org/Graphics/SVG/1.1/DTD/svg11.dtd">
<svg version="1.1" xmlns="http://www.w3.org/2000/svg" xmlns:xlink="http://www.w3.org/1999/xlink" width="22" height="28" viewBox="0 0 22 28">
<g id="icomoon-ignore">
</g>
<path d="M9.328 10.422q-0.156 0.281-4.016 7.125-0.422 0.719-1.016 0.719h-3.734q-0.328 0-0.484-0.266t0-0.562l3.953-7q0.016 0 0-0.016l-2.516-4.359q-0.187-0.344-0.016-0.578 0.141-0.234 0.5-0.234h3.734q0.625 0 1.031 0.703zM21.922 0.391q0.172 0.25 0 0.578l-8.25 14.594v0.016l5.25 9.609q0.172 0.313 0.016 0.578-0.156 0.234-0.5 0.234h-3.734q-0.656 0-1.031-0.703l-5.297-9.719q0.281-0.5 8.297-14.719 0.391-0.703 1-0.703h3.766q0.344 0 0.484 0.234z" fill="#000000"></path>
</svg>
