<svg display="none" version="1.1" xmlns="http://www.w3.org/2000/svg" xmlns:xlink="http://www.w3.org/1999/xlink">
<defs>
<symbol id="icon-xing" viewBox="0 0 805 1024">
	<title>xing</title>
	<path class="path1" d="M341.143 381.143q-5.714 10.286-146.857 260.571-15.429 26.286-37.143 26.286h-136.571q-12 0-17.714-9.714t0-20.571l144.571-256q0.571 0 0-0.571l-92-159.429q-6.857-12.571-0.571-21.143 5.143-8.571 18.286-8.571h136.571q22.857 0 37.714 25.714zM801.714 14.286q6.286 9.143 0 21.143l-301.714 533.714v0.571l192 351.429q6.286 11.429 0.571 21.143-5.714 8.571-18.286 8.571h-136.571q-24 0-37.714-25.714l-193.714-355.429q10.286-18.286 303.429-538.286 14.286-25.714 36.571-25.714h137.714q12.571 0 17.714 8.571z"></path>
</symbol>
<symbol id="icon-linkedin" viewBox="0 0 1024 1024">
	<title>linkedin</title>
	<path class="path1" d="M199.429 357.143v566.286h-188.571v-566.286h188.571zM211.429 182.286q0.571 41.714-28.857 69.714t-77.429 28h-1.143q-46.857 0-75.429-28t-28.571-69.714q0-42.286 29.429-70t76.857-27.714 76 27.714 29.143 70zM877.714 598.857v324.571h-188v-302.857q0-60-23.143-94t-72.286-34q-36 0-60.286 19.714t-36.286 48.857q-6.286 17.143-6.286 46.286v316h-188q1.143-228 1.143-369.714t-0.571-169.143l-0.571-27.429h188v82.286h-1.143q11.429-18.286 23.429-32t32.286-29.714 49.714-24.857 65.429-8.857q97.714 0 157.143 64.857t59.429 190z"></path>
</symbol>
<symbol id="icon-envelope" viewBox="0 0 1024 1024">
	<title>envelope</title>
	<path class="path1" d="M928 128h-832c-52.8 0-96 43.2-96 96v640c0 52.8 43.2 96 96 96h832c52.8 0 96-43.2 96-96v-640c0-52.8-43.2-96-96-96zM398.74 550.372l-270.74 210.892v-501.642l270.74 290.75zM176.38 256h671.24l-335.62 252-335.62-252zM409.288 561.698l102.712 110.302 102.71-110.302 210.554 270.302h-626.528l210.552-270.302zM625.26 550.372l270.74-290.75v501.642l-270.74-210.892z"></path>
</symbol>
<symbol id="icon-bubbles" viewBox="0 0 1152 1024">
	<title>bubbles</title>
	<path class="path1" d="M480 0v0c265.096 0 480 173.914 480 388.448s-214.904 388.448-480 388.448c-25.458 0-50.446-1.62-74.834-4.71-103.106 102.694-222.172 121.108-341.166 123.814v-25.134c64.252-31.354 116-88.466 116-153.734 0-9.106-0.712-18.048-2.030-26.794-108.558-71.214-177.97-179.988-177.97-301.89 0-214.534 214.904-388.448 480-388.448zM996 870.686c0 55.942 36.314 104.898 92 131.772v21.542c-103.126-2.318-197.786-18.102-287.142-106.126-21.14 2.65-42.794 4.040-64.858 4.040-95.47 0-183.408-25.758-253.614-69.040 144.674-0.506 281.26-46.854 384.834-130.672 52.208-42.252 93.394-91.826 122.414-147.348 30.766-58.866 46.366-121.582 46.366-186.406 0-10.448-0.45-20.836-1.258-31.168 72.57 59.934 117.258 141.622 117.258 231.676 0 104.488-60.158 197.722-154.24 258.764-1.142 7.496-1.76 15.16-1.76 22.966z"></path>
</symbol>
<symbol id="icon-googleplus" viewBox="0 0 1024 1024">
	<title>googleplus</title>
	<path class="path1" d="M559.066 64c0 0-200.956 0-267.94 0-120.12 0-233.17 91.006-233.17 196.422 0 107.726 81.882 194.666 204.088 194.666 8.498 0 16.756-0.17 24.842-0.752-7.93 15.186-13.602 32.288-13.602 50.042 0 29.938 16.104 54.21 36.468 74.024-15.386 0-30.242 0.448-46.452 0.448-148.782-0.002-263.3 94.758-263.3 193.020 0 96.778 125.542 157.314 274.334 157.314 169.624 0 263.306-96.244 263.306-193.028 0-77.6-22.896-124.072-93.686-174.134-24.216-17.144-70.53-58.836-70.53-83.344 0-28.72 8.196-42.868 51.428-76.646 44.312-34.624 75.672-83.302 75.672-139.916 0-67.406-30.020-133.098-86.372-154.772h84.954l59.96-43.344zM465.48 719.458c2.126 8.972 3.284 18.206 3.284 27.628 0 78.2-50.392 139.31-194.974 139.31-102.842 0-177.116-65.104-177.116-143.3 0-76.642 92.126-140.444 194.964-139.332 24 0.254 46.368 4.116 66.67 10.69 55.826 38.826 95.876 60.762 107.172 105.004zM300.818 427.776c-69.038-2.064-134.636-77.226-146.552-167.86-11.916-90.666 34.37-160.042 103.388-157.99 69.010 2.074 134.638 74.814 146.558 165.458 11.906 90.66-34.39 162.458-103.394 160.392zM832 256v-192h-64v192h-192v64h192v192h64v-192h192v-64z"></path>
</symbol>
<symbol id="icon-facebook" viewBox="0 0 1024 1024">
	<title>facebook</title>
	<path class="path1" d="M575.87 1024h-191.87v-512h-128v-176.45l128-0.058-0.208-103.952c0-143.952 39.034-231.54 208.598-231.54h141.176v176.484h-88.23c-66.032 0-69.206 24.656-69.206 70.684l-0.262 88.324h158.69l-18.704 176.45-139.854 0.058-0.13 512z"></path>
</symbol>
<symbol id="icon-twitter" viewBox="0 0 1024 1024">
	<title>twitter</title>
	<path class="path1" d="M1024 194.418c-37.676 16.708-78.164 28.002-120.66 33.080 43.372-26 76.686-67.17 92.372-116.23-40.596 24.078-85.556 41.56-133.41 50.98-38.32-40.83-92.922-66.34-153.346-66.34-116.022 0-210.088 94.058-210.088 210.078 0 16.466 1.858 32.5 5.44 47.878-174.6-8.764-329.402-92.4-433.018-219.506-18.084 31.028-28.446 67.116-28.446 105.618 0 72.888 37.088 137.192 93.46 174.866-34.438-1.092-66.832-10.542-95.154-26.278-0.020 0.876-0.020 1.756-0.020 2.642 0 101.788 72.418 186.696 168.522 206-17.626 4.8-36.188 7.372-55.348 7.372-13.538 0-26.698-1.32-39.528-3.772 26.736 83.46 104.32 144.206 196.252 145.896-71.9 56.35-162.486 89.934-260.916 89.934-16.958 0-33.68-0.994-50.116-2.94 92.972 59.61 203.402 94.394 322.042 94.394 386.422 0 597.736-320.124 597.736-597.744 0-9.108-0.206-18.168-0.61-27.18 41.056-29.62 76.672-66.62 104.836-108.748z"></path>
</symbol>
<symbol id="icon-feed" viewBox="0 0 1024 1024">
	<title>feed</title>
	<path class="path1" d="M136.294 750.93c-75.196 0-136.292 61.334-136.292 136.076 0 75.154 61.1 135.802 136.292 135.802 75.466 0 136.494-60.648 136.494-135.802-0.002-74.742-61.024-136.076-136.494-136.076zM0.156 347.93v196.258c127.784 0 247.958 49.972 338.458 140.512 90.384 90.318 140.282 211.036 140.282 339.3h197.122c-0.002-372.82-303.282-676.070-675.862-676.070zM0.388 0v196.356c455.782 0 826.756 371.334 826.756 827.644h196.856c0-564.47-459.254-1024-1023.612-1024z"></path>
</symbol>
<symbol id="icon-github" viewBox="0 0 1024 1024">
	<title>github</title>
	<path class="path1" d="M512 831.892c-19.154 0-38.308-9.916-58.142-29.75-7.81-7.81-7.81-20.474 0-28.286 7.81-7.808 20.474-7.808 28.286 0 12.206 12.21 21.972 18.144 29.856 18.144 7.882 0 17.65-5.934 29.858-18.142 7.812-7.808 20.472-7.808 28.286 0 7.81 7.81 7.81 20.474 0 28.286-19.836 19.832-38.99 29.748-58.144 29.748zM0 525.492c0 49.892 4.266 95.122 12.8 135.682s20.534 75.74 36 105.532c15.466 29.792 35.022 55.904 58.666 78.34s49.332 40.92 77.066 55.458c27.734 14.536 59.466 26.296 95.2 35.266 35.732 8.974 72.088 15.256 109.066 18.846s77.69 5.384 122.134 5.384c44.444 0 85.242-1.79 122.398-5.38s73.602-9.872 109.332-18.846c35.734-8.974 67.558-20.73 95.468-35.266 27.91-14.538 53.778-33.026 77.598-55.458 23.824-22.436 43.47-48.548 58.934-78.34 15.47-29.794 27.56-64.974 36.27-105.532 8.71-40.56 13.066-85.788 13.066-135.68 0-89.38-27.736-166.372-83.2-230.982 3.2-8.616 5.954-18.486 8.266-29.614 2.308-11.128 4.532-26.832 6.664-47.112 2.138-20.282 1.336-43.704-2.398-70.264-3.734-26.564-10.754-53.664-21.066-81.302l-8-1.618c-5.332-1.076-14.042-0.718-26.132 1.080-12.086 1.794-26.222 5.022-42.398 9.69-16.176 4.664-37.066 13.908-62.668 27.728-25.598 13.818-52.62 31.318-81.066 52.496-48.356-14.718-115.020-30.116-200-30.116-84.976 0-151.822 15.396-200.53 30.114-28.446-21.18-55.556-38.588-81.334-52.228-25.78-13.642-46.402-22.974-61.868-27.998-15.468-5.024-29.778-8.256-42.934-9.69-13.156-1.436-21.602-1.886-25.334-1.346-3.732 0.538-6.488 1.166-8.266 1.884-10.314 27.64-17.424 54.74-21.336 81.304-3.91 26.56-4.8 49.892-2.666 69.992 2.134 20.102 4.444 35.898 6.934 47.382 2.49 11.486 5.334 21.358 8.534 29.614-55.466 64.25-83.2 141.242-83.2 230.98zM136.536 639.404c0-58.022 21.332-110.638 64-157.856 12.8-14.406 27.646-25.312 44.534-32.712 16.89-7.402 36.088-11.606 57.6-12.606s42.044-0.8 61.6 0.6c19.556 1.402 43.734 3.302 72.534 5.702 28.798 2.404 53.688 3.602 74.666 3.602 20.976 0 45.868-1.2 74.664-3.602 28.806-2.4 52.982-4.3 72.536-5.702 19.56-1.4 40.090-1.6 61.602-0.6 21.512 1.002 40.802 5.204 57.868 12.606 17.066 7.4 32 18.306 44.8 32.712 42.664 47.218 64 99.834 64 157.856 0 34.012-3.554 64.324-10.668 90.934-7.11 26.612-16.090 48.916-26.934 66.922-10.844 18.008-26.048 33.218-45.598 45.62-19.558 12.406-38.492 22.010-56.8 28.81-18.312 6.8-41.958 12.104-70.934 15.906-28.982 3.796-54.934 6.102-77.872 6.9-22.934 0.8-51.82 1.2-86.664 1.2s-63.644-0.402-86.4-1.2c-22.756-0.798-48.622-3.104-77.6-6.9-28.978-3.802-52.622-9.104-70.934-15.906-18.31-6.802-37.244-16.404-56.8-28.81-19.556-12.404-34.756-27.612-45.6-45.62-10.846-18.006-19.824-40.31-26.934-66.922-7.11-26.61-10.666-56.922-10.666-90.934zM256 608.004c0-53.019 28.654-96 64-96s64 42.981 64 96c0 53.019-28.654 96-64 96s-64-42.981-64-96zM640 608.004c0-53.019 28.654-96 64-96s64 42.981 64 96c0 53.019-28.654 96-64 96s-64-42.981-64-96z"></path>
</symbol>
</defs>
</svg>
